<svg id="Layer_1" data-name="Layer 1" xmlns="http://www.w3.org/2000/svg" viewBox="0 0 1024 1024"><defs><style>.cls-1{fill:#fff;}.cls-2{fill:#fff4dc;}.cls-3{fill:#8d4442;}.cls-4{fill:#dca77e;}.cls-5{fill:#cc9169;}.cls-6{fill:#eec7a0;}.cls-7{fill:#ad5e3e;}.cls-8{fill:#c6724b;}.cls-9{fill:#4f8c47;}.cls-10{fill:#9dc034;}.cls-11{fill:#286754;}.cls-12{fill:#6da13e;}.cls-13{fill:#845348;}.cls-14{fill:#f4ebe0;}.cls-15{fill:#af5b3a;}</style></defs><rect class="cls-1" width="1024" height="1024"/><rect y="982.23" width="1024" height="41.76"/><path class="cls-2" d="M318.63,990.7H323a12.79,12.79,0,0,1,8.37,2.68,9.2,9.2,0,0,1,3.32,7.63q0,5.12-3.29,7.82a12.89,12.89,0,0,1-8.49,2.71h-4.23Zm2.6,18.46h.92a17.32,17.32,0,0,0,3.81-.4,8.75,8.75,0,0,0,3.14-1.35,7.1,7.1,0,0,0,2.14-2.49,8.19,8.19,0,0,0,.8-3.8,8.5,8.5,0,0,0-.79-3.83,6,6,0,0,0-2.2-2.47,10.05,10.05,0,0,0-3.11-1.33,15.78,15.78,0,0,0-3.79-.41h-.92Z" transform="translate(-0.47 -0.12)"/><path class="cls-2" d="M338.45,1005.49a4.86,4.86,0,0,0,1.11,3,3.47,3.47,0,0,0,2.79,1.27,3.74,3.74,0,0,0,2.23-.62,6.41,6.41,0,0,0,1.64-1.89l2.1,1.18a6.75,6.75,0,0,1-6,3.54,5.94,5.94,0,0,1-4.64-1.93,7.15,7.15,0,0,1-1.71-4.87,7.6,7.6,0,0,1,1.63-5,5.7,5.7,0,0,1,4.67-1.93,5.36,5.36,0,0,1,4.5,1.93,7.69,7.69,0,0,1,1.55,5v.39Zm7.38-1.89a3.92,3.92,0,0,0-1.15-2.36,3.42,3.42,0,0,0-2.41-.87,3.67,3.67,0,0,0-1.34.24,3.32,3.32,0,0,0-1.11.68,3.85,3.85,0,0,0-.8,1,4.12,4.12,0,0,0-.43,1.28Z" transform="translate(-0.47 -0.12)"/><path class="cls-2" d="M355.64,1001.56a1.77,1.77,0,0,0-1.65-1.13,1.35,1.35,0,0,0-.94.37,1.17,1.17,0,0,0-.42.9,1.2,1.2,0,0,0,.32.84,3.3,3.3,0,0,0,.87.66c.24.1.42.19.55.26l.64.29a2.3,2.3,0,0,0,.39.16,1.1,1.1,0,0,1,.24.11,7.47,7.47,0,0,1,2.19,1.47,3.06,3.06,0,0,1,.8,2.21,4,4,0,0,1-1.33,3.06,4.36,4.36,0,0,1-3.12,1.22,5.27,5.27,0,0,1-1.44-.2,5.39,5.39,0,0,1-1.29-.59,4.51,4.51,0,0,1-1-.91,4,4,0,0,1-.71-1.2l2.13-1a2.68,2.68,0,0,0,2.35,1.66,2.06,2.06,0,0,0,1.81-1.12,1.56,1.56,0,0,0,.1-1,1.9,1.9,0,0,0-.86-1.06l-2.44-1.3a10,10,0,0,1-1.1-.67,3.5,3.5,0,0,1-.77-.7,2.71,2.71,0,0,1-.46-.83,3.39,3.39,0,0,1-.15-1.06,3.56,3.56,0,0,1,1.11-2.66,3.89,3.89,0,0,1,6.24,1.16Z" transform="translate(-0.47 -0.12)"/><path class="cls-2" d="M364.57,992.69a1.69,1.69,0,0,1-1.71,1.68,1.66,1.66,0,0,1-1.22-.49,1.63,1.63,0,0,1-.5-1.19,1.71,1.71,0,0,1,.5-1.23,1.64,1.64,0,0,1,1.22-.51,1.62,1.62,0,0,1,1.21.51A1.71,1.71,0,0,1,364.57,992.69Zm-.47,18.85h-2.49V998.6h2.49Z" transform="translate(-0.47 -0.12)"/><path class="cls-2" d="M380.19,1011.29a9.9,9.9,0,0,1-1.39,5.67c-.92,1.32-2.56,2-4.92,2a6.41,6.41,0,0,1-4.47-1.58,5.69,5.69,0,0,1-1.77-4.28h2.49a3.41,3.41,0,0,0,1.06,2.69,4,4,0,0,0,2.81,1,3.19,3.19,0,0,0,2.91-1.25,6.52,6.52,0,0,0,.79-3.51v-2.46h-.06a5.44,5.44,0,0,1-1.92,1.81,4.85,4.85,0,0,1-2.47.65,5.52,5.52,0,0,1-4.53-2,7.53,7.53,0,0,1-1.66-5,7.06,7.06,0,0,1,1.69-4.76,5.44,5.44,0,0,1,4.39-2,5.08,5.08,0,0,1,4.5,2.6h.06V998.6h2.49Zm-6.55-1.52a3.73,3.73,0,0,0,3.06-1.35,5.09,5.09,0,0,0,1.14-3.35,4.91,4.91,0,0,0-1.14-3.28,4,4,0,0,0-6.05,0,5,5,0,0,0-1.11,3.26,5.06,5.06,0,0,0,1.11,3.32A3.68,3.68,0,0,0,373.64,1009.77Z" transform="translate(-0.47 -0.12)"/><path class="cls-2" d="M385.91,1000.35h0a3.83,3.83,0,0,1,1.61-1.58,4.81,4.81,0,0,1,2.29-.55,5.53,5.53,0,0,1,2.16.38,3.5,3.5,0,0,1,1.42,1.11,4.45,4.45,0,0,1,.77,1.75,10.61,10.61,0,0,1,.24,2.37v7.71H392v-7.4a5.36,5.36,0,0,0-.55-2.79,2.46,2.46,0,0,0-2.29-.92,4.13,4.13,0,0,0-1.08.12,2.81,2.81,0,0,0-.78.36,2.57,2.57,0,0,0-.55.54,4.88,4.88,0,0,0-.41.66,3,3,0,0,0-.16.5c0,.21-.09.41-.12.62s-.07.43-.09.64,0,.38,0,.51v7.16h-2.49V998.6h2.49Z" transform="translate(-0.47 -0.12)"/><path class="cls-2" d="M405.67,987.55h2.49v13.21h.06a5.21,5.21,0,0,1,4.5-2.54,5.44,5.44,0,0,1,4.39,2,7.06,7.06,0,0,1,1.69,4.76,7.53,7.53,0,0,1-1.66,5,5.52,5.52,0,0,1-4.53,2,4.89,4.89,0,0,1-2.48-.65,5.5,5.5,0,0,1-1.91-1.81h-.06v2h-2.49Zm6.44,22.22a3.75,3.75,0,0,0,3.07-1.35,5.09,5.09,0,0,0,1.13-3.35,4.9,4.9,0,0,0-1.13-3.28,4,4,0,0,0-6.06,0,5,5,0,0,0-1.1,3.26,5.11,5.11,0,0,0,1.1,3.32A3.7,3.7,0,0,0,412.11,1009.77Z" transform="translate(-0.47 -0.12)"/><path class="cls-2" d="M419.16,998.6h2.9l4.37,8.21,4.06-8.21h2.79L422.81,1019H420l5.08-9.62Z" transform="translate(-0.47 -0.12)"/><path class="cls-2" d="M445.83,1006.32l-2.38,5.22h-2.79l9.95-21.73,9.95,21.73h-2.79l-2.38-5.22Zm4.78-10.81-3.7,8.43h7.41Z" transform="translate(-0.47 -0.12)"/><path class="cls-2" d="M464.62,1011.54h-2.48v-24h2.48Z" transform="translate(-0.47 -0.12)"/><path class="cls-2" d="M470.76,1011.54h-2.49v-24h2.49Z" transform="translate(-0.47 -0.12)"/><path class="cls-2" d="M480.21,1001.64v2.08h-6v-2.08Z" transform="translate(-0.47 -0.12)"/><path class="cls-2" d="M489.89,990.06a4.83,4.83,0,0,0-1.66-.52,1.31,1.31,0,0,0-1.16.51,3.12,3.12,0,0,0-.5,1.26,8,8,0,0,0-.1.87c0,.21,0,.5,0,.87v5.55h3.43v2.32h-3.43v10.62H484v-10.62h-1.13V998.6H484v-6.3q0-5.09,4.17-5.08a4.73,4.73,0,0,1,1.75.33Z" transform="translate(-0.47 -0.12)"/><path class="cls-2" d="M493.73,1000.7h.08a4.19,4.19,0,0,1,1.38-1.82,3.59,3.59,0,0,1,2.16-.66,3.85,3.85,0,0,1,2,.63l-1.13,2.27a2.25,2.25,0,0,0-1.52-.53,2.48,2.48,0,0,0-2.54,1.55,7,7,0,0,0-.38,1.42,13,13,0,0,0-.09,1.62v6.36h-2.49V998.6h2.49Z" transform="translate(-0.47 -0.12)"/><path class="cls-2" d="M502.27,1005.49a4.91,4.91,0,0,0,1.1,3,3.49,3.49,0,0,0,2.8,1.27,3.69,3.69,0,0,0,2.22-.62,6.14,6.14,0,0,0,1.64-1.89l2.11,1.18a6.78,6.78,0,0,1-6,3.54,6,6,0,0,1-4.65-1.93,7.15,7.15,0,0,1-1.71-4.87,7.6,7.6,0,0,1,1.63-5,5.72,5.72,0,0,1,4.67-1.93,5.4,5.4,0,0,1,4.51,1.93,7.69,7.69,0,0,1,1.55,5v.39Zm7.38-1.89a3.92,3.92,0,0,0-1.15-2.36,3.43,3.43,0,0,0-2.42-.87,3.71,3.71,0,0,0-1.34.24,3.38,3.38,0,0,0-1.1.68,3.66,3.66,0,0,0-.8,1,3.87,3.87,0,0,0-.43,1.28Z" transform="translate(-0.47 -0.12)"/><path class="cls-2" d="M515.75,1005.49a4.86,4.86,0,0,0,1.11,3,3.48,3.48,0,0,0,2.79,1.27,3.72,3.72,0,0,0,2.23-.62,6.41,6.41,0,0,0,1.64-1.89l2.1,1.18a6.75,6.75,0,0,1-6,3.54,5.94,5.94,0,0,1-4.64-1.93,7.15,7.15,0,0,1-1.71-4.87,7.6,7.6,0,0,1,1.63-5,5.71,5.71,0,0,1,4.67-1.93,5.36,5.36,0,0,1,4.5,1.93,7.69,7.69,0,0,1,1.55,5v.39Zm7.39-1.89a4,4,0,0,0-1.15-2.36,3.45,3.45,0,0,0-2.42-.87,3.76,3.76,0,0,0-1.35.24,3.38,3.38,0,0,0-1.1.68,3.85,3.85,0,0,0-.8,1,4.12,4.12,0,0,0-.43,1.28Z" transform="translate(-0.47 -0.12)"/><path class="cls-2" d="M533.66,1001.64v2.08h-6v-2.08Z" transform="translate(-0.47 -0.12)"/><path class="cls-2" d="M546.57,1009.52h-.06a5.5,5.5,0,0,1-1.91,1.81,4.89,4.89,0,0,1-2.48.65,5.54,5.54,0,0,1-4.53-2,7.53,7.53,0,0,1-1.66-5,7.06,7.06,0,0,1,1.69-4.76,5.46,5.46,0,0,1,4.39-2,5.21,5.21,0,0,1,4.5,2.54h.06V987.55h2.49v24h-2.49Zm-4.06.25a3.75,3.75,0,0,0,3.07-1.35,5.14,5.14,0,0,0,1.13-3.35,5,5,0,0,0-1.13-3.28,3.73,3.73,0,0,0-3.07-1.36,3.68,3.68,0,0,0-3,1.38,5,5,0,0,0-1.1,3.26,5.11,5.11,0,0,0,1.1,3.32A3.68,3.68,0,0,0,542.51,1009.77Z" transform="translate(-0.47 -0.12)"/><path class="cls-2" d="M553.12,1000.21a6.73,6.73,0,0,1,4.92-2,6.88,6.88,0,1,1,0,13.76,6.92,6.92,0,0,1-4.92-11.77Zm.5,4.89a4.49,4.49,0,0,0,1.3,3.18,4.15,4.15,0,0,0,3.12,1.33,4.21,4.21,0,0,0,3.12-1.33,4.54,4.54,0,0,0,0-6.36,4.21,4.21,0,0,0-3.12-1.33,4.15,4.15,0,0,0-3.12,1.33A4.45,4.45,0,0,0,553.62,1005.1Z" transform="translate(-0.47 -0.12)"/><path class="cls-2" d="M571.64,1006.84l3.81-9,3.79,9L583,998.6h2.82L579.24,1012l-3.79-8.65-3.81,8.65-6.58-13.38h2.82Z" transform="translate(-0.47 -0.12)"/><path class="cls-2" d="M589.55,1000.35h.06a3.75,3.75,0,0,1,1.6-1.58,4.84,4.84,0,0,1,2.29-.55,5.53,5.53,0,0,1,2.16.38,3.43,3.43,0,0,1,1.42,1.11,4.45,4.45,0,0,1,.77,1.75,10.61,10.61,0,0,1,.24,2.37v7.71H595.6v-7.4a5.36,5.36,0,0,0-.55-2.79,2.44,2.44,0,0,0-2.29-.92,4.13,4.13,0,0,0-1.08.12,2.81,2.81,0,0,0-.78.36,2.57,2.57,0,0,0-.55.54,6.14,6.14,0,0,0-.41.66,3,3,0,0,0-.16.5l-.12.62c0,.22-.07.43-.08.64s0,.38,0,.51v7.16h-2.49V998.6h2.49Z" transform="translate(-0.47 -0.12)"/><path class="cls-2" d="M604.11,1011.54h-2.48v-24h2.48Z" transform="translate(-0.47 -0.12)"/><path class="cls-2" d="M608.48,1000.21a6.73,6.73,0,0,1,4.92-2,6.88,6.88,0,1,1,0,13.76,6.92,6.92,0,0,1-4.92-11.77Zm.5,4.89a4.49,4.49,0,0,0,1.3,3.18,4.32,4.32,0,0,0,6.24,0,4.51,4.51,0,0,0,0-6.36,4.32,4.32,0,0,0-6.24,0A4.45,4.45,0,0,0,609,1005.1Z" transform="translate(-0.47 -0.12)"/><path class="cls-2" d="M634.71,1011.54h-2.49v-2h-.05a5.07,5.07,0,0,1-4.4,2.46,5.6,5.6,0,0,1-4.53-2,7.53,7.53,0,0,1-1.66-5,7.06,7.06,0,0,1,1.69-4.76,5.47,5.47,0,0,1,4.42-2,5.19,5.19,0,0,1,4.48,2.54h.05V998.6h2.49Zm-6.55-1.77a3.75,3.75,0,0,0,3.07-1.35,5.14,5.14,0,0,0,1.13-3.35,5,5,0,0,0-1.13-3.28,3.73,3.73,0,0,0-3.07-1.36,3.66,3.66,0,0,0-3,1.38,5,5,0,0,0-1.11,3.26,5.06,5.06,0,0,0,1.11,3.32A3.66,3.66,0,0,0,628.16,1009.77Z" transform="translate(-0.47 -0.12)"/><path class="cls-2" d="M647.59,1009.52h-.05a5.61,5.61,0,0,1-1.92,1.81,4.89,4.89,0,0,1-2.48.65,5.54,5.54,0,0,1-4.53-2,7.59,7.59,0,0,1-1.66-5,7.06,7.06,0,0,1,1.69-4.76,5.46,5.46,0,0,1,4.39-2,5.24,5.24,0,0,1,4.51,2.54h.05V987.55h2.49v24h-2.49Zm-4.06.25a3.72,3.72,0,0,0,3.06-1.35,5.09,5.09,0,0,0,1.14-3.35,4.91,4.91,0,0,0-1.14-3.28,3.7,3.7,0,0,0-3.06-1.36,3.65,3.65,0,0,0-3,1.38,5,5,0,0,0-1.11,3.26,5.06,5.06,0,0,0,1.11,3.32A3.65,3.65,0,0,0,643.53,1009.77Z" transform="translate(-0.47 -0.12)"/><path class="cls-2" d="M657.21,1010.38a1.55,1.55,0,0,1-.47,1.13,1.52,1.52,0,0,1-1.14.47,1.6,1.6,0,0,1-1.6-1.6,1.62,1.62,0,0,1,1.6-1.6,1.53,1.53,0,0,1,1.14.48A1.56,1.56,0,0,1,657.21,1010.38Z" transform="translate(-0.47 -0.12)"/><path class="cls-2" d="M670.81,1002.28a4.8,4.8,0,0,0-3.71-1.74,4,4,0,0,0-3.06,1.35,4.65,4.65,0,0,0-1.25,3.18,4.49,4.49,0,0,0,1.25,3.29,4.37,4.37,0,0,0,3.23,1.3,4.66,4.66,0,0,0,3.54-1.71v3.18a7.47,7.47,0,0,1-3.57.85,6.86,6.86,0,0,1-4.92-2,6.4,6.4,0,0,1-2-4.84,6.69,6.69,0,0,1,2-5,6.92,6.92,0,0,1,5.06-2,6.5,6.5,0,0,1,3.43.86Z" transform="translate(-0.47 -0.12)"/><path class="cls-2" d="M674.32,1000.21a6.71,6.71,0,0,1,4.92-2,6.88,6.88,0,1,1,0,13.76,6.71,6.71,0,0,1-4.92-2,7,7,0,0,1,0-9.78Zm.49,4.89a4.53,4.53,0,0,0,1.3,3.18,4.19,4.19,0,0,0,3.13,1.33,4.24,4.24,0,0,0,3.12-1.33,4.54,4.54,0,0,0,0-6.36,4.24,4.24,0,0,0-3.12-1.33,4.19,4.19,0,0,0-3.13,1.33A4.5,4.5,0,0,0,674.81,1005.1Z" transform="translate(-0.47 -0.12)"/><path class="cls-2" d="M690.82,1000.23h0a4.66,4.66,0,0,1,1.48-1.45,3.76,3.76,0,0,1,1.95-.56,4.13,4.13,0,0,1,3.73,2.29,4.56,4.56,0,0,1,1.68-1.67,4.48,4.48,0,0,1,2.3-.62q4.29,0,4.29,5.58v7.74h-2.49v-7.32c0-.33,0-.66,0-1a7.36,7.36,0,0,0-.15-.94,3.09,3.09,0,0,0-.34-.84,2.43,2.43,0,0,0-.6-.69,2.26,2.26,0,0,0-1.27-.33,2.55,2.55,0,0,0-1.33.33,2.41,2.41,0,0,0-.82.76,3.83,3.83,0,0,0-.45,1.15,8.24,8.24,0,0,0-.21,1.24c0,.37,0,.8,0,1.27v6.36h-2.49v-6.85c0-.45,0-.81,0-1.11a8.92,8.92,0,0,0-.16-1.11,2.94,2.94,0,0,0-.36-1.05,2.26,2.26,0,0,0-.69-.69,2.06,2.06,0,0,0-1.14-.3,2.31,2.31,0,0,0-2.45,1.66,7.2,7.2,0,0,0-.33,1.46,12.87,12.87,0,0,0-.09,1.63v6.36h-2.49V998.6h2.49Z" transform="translate(-0.47 -0.12)"/><rect class="cls-2" x="260.19" y="1002.11" width="35.21" height="1.72"/><rect class="cls-2" x="728.61" y="1002.11" width="35.2" height="1.72"/><path class="cls-3" d="M811,573.94c0,29.84-41.15,62.88-105.94,86.39C653,679.22,585.59,692,512,692c-154.48,0-281.61-56.17-297.34-107.5A35.29,35.29,0,0,1,213,573.94c0-53.85,133.87-97.5,299-97.5a878.75,878.75,0,0,1,98,5.35c99.37,11.23,174.95,39.09,195.46,73.36a38.36,38.36,0,0,1,5.14,13.55c.16,1,.28,2.06.34,3.09C811,572.5,811,573.23,811,573.94Z" transform="translate(-0.47 -0.12)"/><path class="cls-4" d="M810.92,571.79c-17.27,21.22-52.77,42.12-100.29,58.43-55.08,18.9-126.3,31.64-204.1,31.64-131.5,0-244.24-36.42-291.87-77.4A35.29,35.29,0,0,1,213,573.94c0-53.85,133.87-97.5,299-97.5a878.75,878.75,0,0,1,98,5.35c99.37,11.23,174.95,39.09,195.46,73.36a38.36,38.36,0,0,1,5.14,13.55C810.74,569.72,810.86,570.76,810.92,571.79Z" transform="translate(-0.47 -0.12)"/><path class="cls-5" d="M810.58,568.7c-.09.46-.18.93-.29,1.39s-.22.93-.34,1.4a35.46,35.46,0,0,1-2.82,7c-.25.46-.51.93-.78,1.39-.39.67-.81,1.36-1.25,2-.22.34-.45.7-.7,1s-.5.74-.78,1.09-.67.93-1,1.38a60.11,60.11,0,0,1-4.29,5c-.44.48-.91,1-1.38,1.41s-.77.77-1.17,1.14c-1.35,1.3-2.78,2.57-4.29,3.84-.37.32-.74.62-1.11.92a129.47,129.47,0,0,1-13.41,9.54l-2.21,1.35-2.27,1.36c-.92.53-1.83,1.06-2.76,1.58-.65.36-1.3.73-2,1.08-.81.46-1.63.89-2.45,1.33l-2.52,1.32c-1.69.87-3.43,1.73-5.2,2.58-.82.4-1.64.8-2.47,1.18-2.06,1-4.16,1.93-6.31,2.87-1.71.76-3.45,1.49-5.23,2.23-2.94,1.23-6,2.45-9.06,3.63-2.9,1.11-5.86,2.19-8.88,3.27q-5.19,1.83-10.66,3.59c-2.27.73-4.58,1.46-6.91,2.17-1.18.36-2.35.71-3.53,1s-2.38.7-3.57,1l-3.63,1q-9.3,2.61-19.17,5-3.67.88-7.43,1.73-14,3.16-29.09,5.79c-6.43-1.43-12.73-3-18.86-4.64a542.38,542.38,0,0,1-79-28.22c-1-.46-1.57-.72-1.57-.72l-16.51-44.49-1.31-58.9,55-27.13L610,481.79c99.37,11.23,174.95,39.09,195.46,73.36h0A38.31,38.31,0,0,1,810.58,568.7Z" transform="translate(-0.47 -0.12)"/><path class="cls-6" d="M810.58,568.7c-.09.46-.18.93-.29,1.39s-.22.93-.34,1.4a35.46,35.46,0,0,1-2.82,7c-.25.46-.51.93-.78,1.39-.39.67-.81,1.36-1.25,2-.22.34-.45.7-.7,1s-.5.74-.78,1.09-.67.93-1,1.38a60.11,60.11,0,0,1-4.29,5c-.44.48-.91,1-1.38,1.41s-.77.77-1.17,1.14c-1.35,1.3-2.78,2.57-4.29,3.84-.37.32-.74.62-1.11.92a129.47,129.47,0,0,1-13.41,9.54l-2.21,1.35-2.27,1.36c-.92.53-1.83,1.06-2.76,1.58-.65.36-1.3.73-2,1.08-.81.46-1.63.89-2.45,1.33l-2.52,1.32c-1.69.87-3.43,1.73-5.2,2.58-.82.4-1.64.8-2.47,1.18-2.06,1-4.16,1.93-6.31,2.87-1.71.76-3.45,1.49-5.23,2.23-2.94,1.23-6,2.45-9.06,3.63-2.9,1.11-5.86,2.19-8.88,3.27q-5.19,1.83-10.66,3.59c-2.27.73-4.58,1.46-6.91,2.17-1.18.36-2.35.71-3.53,1s-2.38.7-3.57,1l-3.63,1q-9.3,2.61-19.17,5-3.67.88-7.43,1.73-14,3.16-29.09,5.79A759.28,759.28,0,0,1,512,663.23c-144,0-264.17-38.65-292.61-80.6,36.17,39.22,151,73.75,287.14,73.75a767.28,767.28,0,0,0,116.23-8.67c8.48-1.32,16.78-2.75,24.84-4.31h0c6-1.17,11.88-2.4,17.63-3.68,84.26-18.93,140.29-51.25,140.29-82.55,0-.68,0-1.34-.09-2A38.31,38.31,0,0,1,810.58,568.7Z" transform="translate(-0.47 -0.12)"/><path class="cls-5" d="M542.19,618.77q-14,.74-28.82.75c-89.18,0-161.48-21.17-161.48-47.29,0-24.76,64.94-45.07,147.63-47.12-52.83,23.92-80.5,44.22-26,69.34C473.51,594.45,500.75,606.14,542.19,618.77Z" transform="translate(-0.47 -0.12)"/><path class="cls-7" d="M674.84,572.23c0,23.23-57.23,42.55-132.65,46.54-41.44-12.63-68.68-24.32-68.68-24.32-54.49-25.12-26.82-45.42,26-69.34q6.84-.18,13.85-.18C602.55,524.93,674.84,546.1,674.84,572.23Z" transform="translate(-0.47 -0.12)"/><path class="cls-6" d="M805.44,555.15c.06.67.09,1.34.09,2,0,31.3-56,63.62-140.29,82.55-5.75,1.28-11.64,2.51-17.63,3.68,7.62,1.19,15.33,2.26,23.1,3.16,80.08-18,134.64-48.06,139.87-77.86Z" transform="translate(-0.47 -0.12)"/><path class="cls-8" d="M631.26,514.25C631.15,563.41,575,595,505.71,594.81c-21.12,0-41-3-58.45-8.56-39.77-12.59-66.83-38.37-66.75-72.55a65.67,65.67,0,0,1,5.76-26.64q1.25-2.82,2.76-5.55c12-14.34,59.79-25,117-24.86a418.84,418.84,0,0,1,43.42,2.27c36.78,3.91,64.74,12.56,73.44,23.1,1,1.82,1.9,3.68,2.74,5.56A65.74,65.74,0,0,1,631.26,514.25Z" transform="translate(-0.47 -0.12)"/><path class="cls-3" d="M631.26,514.25C631.15,563.41,575,595,505.71,594.81c-21.12,0-41-3-58.45-8.56,21.4-2.47,56.63-18,81.16-87.23,5.69-16.06,12.81-29.29,21-40.1,36.78,3.91,64.74,12.56,73.44,23.1,1,1.82,1.9,3.68,2.74,5.56A65.74,65.74,0,0,1,631.26,514.25Z" transform="translate(-0.47 -0.12)"/><path class="cls-4" d="M689.89,404.59c0,106.56-82.4,175.16-184,175.16-39.71,0-76.47-10.47-106.53-29.57a.05.05,0,0,1,0,0c-46.9-29.8-77.48-80.64-77.48-145.56a203.42,203.42,0,0,1,2.91-34.37,200.42,200.42,0,0,1,5.48-23.39q1.83-6.09,4-12c17.5-31.15,87.7-54.44,171.64-54.44S660,303.67,677.48,334.82q2.21,5.91,4,12A201.87,201.87,0,0,1,689.89,404.59Z" transform="translate(-0.47 -0.12)"/><path class="cls-5" d="M681.51,346.83q-1.83-6.09-4-12c-13.29-23.65-57-42.76-114-50.59,26.8,30.65,42.91,70,42.91,112.84,0,88.29-68.32,161.5-157.71,175a211.26,211.26,0,0,0,57.13,7.7c101.65,0,184.05-68.6,184.05-175.16A201.87,201.87,0,0,0,681.51,346.83Z" transform="translate(-0.47 -0.12)"/><path class="cls-9" d="M688.23,706.28l-.65.47-.48.31-.87.56c-.57.35-1.12.66-1.67,1-1.1.6-2.19,1.16-3.29,1.66a55.7,55.7,0,0,1-6.74,2.59A52,52,0,0,1,633,708.38a63.71,63.71,0,0,1-10.91-7.74,82,82,0,0,1-9-9.11c-2.78-3.31-5-6.24-7.3-9.33L599,673c-4.49-6.12-8.85-12.26-13.33-18a102.68,102.68,0,0,0-14.34-15.51,56.19,56.19,0,0,0-17.65-10.13,96.62,96.62,0,0,0-20.89-4.65h0a4.92,4.92,0,0,1,.8-9.8,106.85,106.85,0,0,1,23.62,3.31,68.94,68.94,0,0,1,22.4,10.54A115.69,115.69,0,0,1,597.39,645c5.29,5.76,10.17,11.58,15.1,17.27l7.38,8.44c2.44,2.75,5,5.67,7.33,8a53.58,53.58,0,0,0,15.38,11.22A30.56,30.56,0,0,0,659,692.73a30.24,30.24,0,0,0,7.93-2,34.18,34.18,0,0,0,3.7-1.8c.59-.33,1.16-.68,1.68-1l.74-.52.3-.24.11-.09s.1-.08-.08.05a12.15,12.15,0,1,1,14.89,19.21Z" transform="translate(-0.47 -0.12)"/><path class="cls-9" d="M610.72,672.11s44.81-31.53,39.5-81c-1.26-11.71-5.32-24.42-13.44-38C636.78,553.11,562.16,605.36,610.72,672.11Z" transform="translate(-0.47 -0.12)"/><path class="cls-10" d="M610.72,672.1l18.75-85.63,7.31-33.37a122.51,122.51,0,0,0-30.25,32.82C593.31,607.43,585.81,637.85,610.72,672.1Z" transform="translate(-0.47 -0.12)"/><path class="cls-11" d="M629.48,586.47l-7.05,54s20.36-15.56,27.79-49.4c5.31,49.51-39.5,81-39.5,81l.09-.43Z" transform="translate(-0.47 -0.12)"/><path class="cls-12" d="M610.72,672.1l18.75-85.63-.09.32-16,52.33s-14.85-14.75-6.82-53.2C593.31,607.43,585.81,637.85,610.72,672.1Z" transform="translate(-0.47 -0.12)"/><path class="cls-9" d="M641.11,698.62S612.72,745.48,563,743.56c-11.77-.45-24.73-3.63-38.8-10.81C524.16,732.75,571.2,654.73,641.11,698.62Z" transform="translate(-0.47 -0.12)"/><path class="cls-10" d="M641.1,698.62,557,723.18l-32.79,9.57a122.58,122.58,0,0,1,30.67-32.42C575.39,685.67,605.23,676.11,641.1,698.62Z" transform="translate(-0.47 -0.12)"/><path class="cls-11" d="M557,723.18l53.39-10.71S596.21,733.84,563,743.56c49.76,1.92,78.15-44.94,78.15-44.94l-.42.12Z" transform="translate(-0.47 -0.12)"/><path class="cls-12" d="M641.1,698.62,557,723.18l.32-.12,51.1-19.56s-15.72-13.82-53.54-3.17C575.39,685.67,605.23,676.11,641.1,698.62Z" transform="translate(-0.47 -0.12)"/><path class="cls-9" d="M592.22,652.64S569,688.92,529.86,686.41c-9.24-.59-19.36-3.35-30.28-9.27C499.58,677.14,538.12,616.73,592.22,652.64Z" transform="translate(-0.47 -0.12)"/><path class="cls-10" d="M592.21,652.64l-66.66,17.63-26,6.87a96.35,96.35,0,0,1,24.77-24.88C540.8,641.14,564.45,634.22,592.21,652.64Z" transform="translate(-0.47 -0.12)"/><path class="cls-11" d="M525.55,670.27l42.19-7.36s-11.53,16.53-37.88,23.5c39.09,2.51,62.36-33.77,62.36-33.77l-.34.09Z" transform="translate(-0.47 -0.12)"/><path class="cls-12" d="M592.21,652.64l-66.66,17.63.25-.09,40.58-14.36s-12.09-11.17-42-3.56C540.8,641.14,564.45,634.22,592.21,652.64Z" transform="translate(-0.47 -0.12)"/><path class="cls-9" d="M574.12,631.25S537.84,608,540.34,568.9c.59-9.24,3.35-19.37,9.27-30.29C549.61,538.61,610,577.15,574.12,631.25Z" transform="translate(-0.47 -0.12)"/><path class="cls-10" d="M574.12,631.24l-17.63-66.66-6.87-26a96.26,96.26,0,0,1,24.87,24.76C585.61,579.83,592.54,603.48,574.12,631.24Z" transform="translate(-0.47 -0.12)"/><path class="cls-11" d="M556.48,564.58l7.36,42.2s-16.52-11.54-23.5-37.88c-2.5,39.09,33.78,62.35,33.78,62.35l-.09-.33Z" transform="translate(-0.47 -0.12)"/><path class="cls-12" d="M574.12,631.24l-17.63-66.66.08.25,14.36,40.58s11.18-12.09,3.56-42C585.61,579.83,592.54,603.48,574.12,631.24Z" transform="translate(-0.47 -0.12)"/><path class="cls-9" d="M544,620.21s-30.63,30.32-68.22,19.33c-8.9-2.6-18.17-7.51-27.53-15.67C448.26,623.87,499.07,573.34,544,620.21Z" transform="translate(-0.47 -0.12)"/><path class="cls-10" d="M544,620.2l-68.9,2.64-26.85,1A96.39,96.39,0,0,1,477.86,605C496.35,597.75,520.94,596.16,544,620.2Z" transform="translate(-0.47 -0.12)"/><path class="cls-11" d="M475.1,622.84l42.78,2s-14.86,13.6-42.09,14.66c37.59,11,68.22-19.33,68.22-19.33h-.34Z" transform="translate(-0.47 -0.12)"/><path class="cls-12" d="M544,620.2l-68.9,2.64.27,0,42.73-5.15s-9.36-13.55-40.24-12.66C496.35,597.75,520.94,596.16,544,620.2Z" transform="translate(-0.47 -0.12)"/><path class="cls-6" d="M681.68,350c0,6.89-2.53,13.55-7.23,19.83-21.57,28.79-88.9,49.8-168.61,49.8-75.48,0-139.86-18.83-164.78-45.28C333.9,366.79,330,358.59,330,350a26.13,26.13,0,0,1,.18-3.19,31.63,31.63,0,0,1,4-12c17.5-31.15,87.7-54.44,171.64-54.44S660,303.67,677.48,334.82a31.82,31.82,0,0,1,4,12A28.28,28.28,0,0,1,681.68,350Z" transform="translate(-0.47 -0.12)"/><path class="cls-3" d="M670.74,350a25.84,25.84,0,0,1-2.17,10.24A33.92,33.92,0,0,1,664,368c-20.23,26.1-83.36,45.13-158.11,45.13-70.79,0-131.16-17.06-154.52-41a41.25,41.25,0,0,1-6.92-9.17A26.79,26.79,0,0,1,341,350a25.32,25.32,0,0,1,.16-2.89,28.2,28.2,0,0,1,3.78-10.89c16.41-28.23,82.24-49.33,161-49.33s144.55,21.1,161,49.33a28.18,28.18,0,0,1,3.77,10.89A25.33,25.33,0,0,1,670.74,350Z" transform="translate(-0.47 -0.12)"/><path class="cls-8" d="M668.57,360.26A33.92,33.92,0,0,1,664,368c-20.23,26.1-83.36,45.13-158.11,45.13-70.79,0-131.16-17.06-154.52-41a41.25,41.25,0,0,1-6.92-9.17c17.92-35,84-61,162.81-61C584,302,648.75,326.62,668.57,360.26Z" transform="translate(-0.47 -0.12)"/><path class="cls-5" d="M793,414.38a78.77,78.77,0,0,0-2.19-14.14c-5.63-22.49-18-32.63-28.38-37.18-1-.43-1.92-.8-2.84-1.13-17.35-6.24-39-1.67-57.82,12.22-3.1,2.28-5.83,4.24-8.26,5.91-10,6.9-14.43,9-15.82,9.55a12.32,12.32,0,0,0-2.62,23.93c5.57,1.85,12.52,1.66,41.31-19.55,12.06-8.88,25.41-12.29,34.88-8.88,7.57,2.72,12.84,9.82,15.66,21.1,4.25,17,.24,36-10.75,50.8-17.27,23.26-50.6,36.72-96.36,38.93l-1.25.05-1.2.32c-11.39,2.9-30.42,12.86-29.61,31.73a12.32,12.32,0,0,0,12.3,11.8l.53,0A12.33,12.33,0,0,0,652.35,527c-.07-1.5,4.87-4.89,10.07-6.52,66.46-3.54,98.4-28.43,113.51-48.78A87.12,87.12,0,0,0,793,414.38Z" transform="translate(-0.47 -0.12)"/><path class="cls-8" d="M775.93,471.69c-9,12.14-24,25.9-48.8,35.78-16.74,6.67-37.92,11.57-64.71,13-5.2,1.63-10.14,5-10.07,6.52a12.33,12.33,0,0,1-11.79,12.83l-.53,0a12.32,12.32,0,0,1-12.3-11.8,25.55,25.55,0,0,1,.56-6.58c.08-.37.16-.74.26-1.1a.19.19,0,0,0,0-.08,24.7,24.7,0,0,1,2.9-6.64c6-9.73,17.83-15.28,25.86-17.33l1.2-.32,1.25-.05c1.56-.09,3.12-.17,4.65-.28,43.37-2.86,75-16.19,91.71-38.65.35-.46.67-.91,1-1.37,10.24-14.58,13.9-32.93,9.77-49.43-2.82-11.28-8.09-18.38-15.66-21.1-9.47-3.41-22.82,0-34.88,8.88-28.79,21.21-35.74,21.4-41.31,19.55a12.25,12.25,0,0,1-7.87-8.08c4.2,1.39,15.13,2.61,30.93-13.18,19-19,76.57-47.32,94.87,22.1A87.12,87.12,0,0,1,775.93,471.69Z" transform="translate(-0.47 -0.12)"/><path class="cls-6" d="M762.41,363.06a25.83,25.83,0,0,1-13.67,1.85c-21.9-2.74-23.27,4.11-39.69,12.32-8.82,4.4-13.3,4.07-15.56,2.83,2.43-1.67,5.16-3.63,8.26-5.91,18.85-13.89,40.47-18.46,57.82-12.22C760.49,362.26,761.44,362.63,762.41,363.06Z" transform="translate(-0.47 -0.12)"/><path class="cls-6" d="M757.13,455.64C751.54,478.28,724,491.31,700.84,499c-24.57,8.19-34.14-.63-36.4-3.36,43.37-2.86,75-16.19,91.71-38.65C756.5,456.55,756.82,456.1,757.13,455.64Z" transform="translate(-0.47 -0.12)"/><path class="cls-6" d="M399.27,550.15c-46.9-29.8-77.48-80.64-77.48-145.56a203.42,203.42,0,0,1,2.91-34.37c4.93,14.81,15.11,35.33,35.41,46.69,34.21,19.16-32.9,77.34,39,133.09Z" transform="translate(-0.47 -0.12)"/><path class="cls-3" d="M727.13,507.47c-16.74,6.67-37.92,11.57-64.71,13-5.2,1.63-10.14,5-10.07,6.52a12.33,12.33,0,0,1-11.79,12.83l-.53,0a12.32,12.32,0,0,1-12.3-11.8,25.55,25.55,0,0,1,.56-6.58c.08-.37.16-.74.26-1.1a.19.19,0,0,0,0-.08,24.7,24.7,0,0,1,2.9-6.64c4.06-4.17,13.74-8,36.52-5.05A205.65,205.65,0,0,0,727.13,507.47Z" transform="translate(-0.47 -0.12)"/><path class="cls-13" d="M374.26,507.52a3,3,0,0,1-3-2.53c-4.87-28.37-.83-81.42,30.76-103,21.53-14.7,50.53-11.24,86.22,10.27a3,3,0,1,1-3.13,5.2c-33.47-20.17-60.28-23.69-79.67-10.45-27.68,18.91-33.15,68.08-28.19,96.95a3,3,0,0,1-2.48,3.51A3.15,3.15,0,0,1,374.26,507.52Z" transform="translate(-0.47 -0.12)"/><rect class="cls-14" x="327.07" y="509.84" width="86.24" height="77.04" rx="10.16" transform="translate(-250.29 779.16) rotate(-76.4)"/><path class="cls-12" d="M370.53,558.44c-30.39,3.91-26.14-25.91-26.14-25.91C374.37,531,370.53,558.44,370.53,558.44Z" transform="translate(-0.47 -0.12)"/><path class="cls-9" d="M370.53,558.44c-30.39,3.91-26.14-25.91-26.14-25.91Z" transform="translate(-0.47 -0.12)"/><path class="cls-12" d="M370.53,558.44c27.39,13.75,33.24-15.81,33.24-15.81C376,531.3,370.53,558.44,370.53,558.44Z" transform="translate(-0.47 -0.12)"/><path class="cls-9" d="M370.53,558.44c27.39,13.75,33.24-15.81,33.24-15.81Z" transform="translate(-0.47 -0.12)"/><path class="cls-15" d="M611.89,360.81c0,9.1-10.9,17.4-28.84,23.68,12.64-5.87,20.11-13.11,20.11-20.95,0-19.65-46.95-35.58-104.84-35.58s-104.85,15.93-104.85,35.58c0,7.84,7.47,15.08,20.11,20.95-17.94-6.28-28.84-14.58-28.84-23.68,0-19.66,50.85-41.06,113.58-41.06S611.89,341.15,611.89,360.81Z" transform="translate(-0.47 -0.12)"/><path class="cls-15" d="M454.1,367.58c.09-4.1,5.09-7.73,13.23-10.37-5.75,2.51-9.19,5.7-9.27,9.23-.2,8.85,20.78,16.5,46.85,17.09s47.38-6.1,47.58-14.95c.08-3.53-3.21-6.87-8.85-9.64,8,3,12.85,6.86,12.75,11-.2,8.85-23.31,18-51.56,17.33S453.9,376.43,454.1,367.58Z" transform="translate(-0.47 -0.12)"/><path class="cls-6" d="M499.06,413.06q-13-.21-25.43-1.14v6.55c8.28.61,16.78,1,25.43,1.11Z" transform="translate(-0.47 -0.12)"/><ellipse class="cls-6" cx="574.48" cy="355.22" rx="10.95" ry="6.84"/><ellipse class="cls-6" cx="547.11" cy="345.64" rx="8.21" ry="4.11"/><ellipse class="cls-6" cx="532.75" cy="357.27" rx="4.79" ry="2.05"/></svg>